<svg width="135" height="31" fill="none" xmlns="http://www.w3.org/2000/svg"><path d="M17.679 8.906c-.133-1.24-.691-2.206-1.676-2.897-.976-.692-2.245-1.037-3.807-1.037-1.098 0-2.04.165-2.827.497-.786.331-1.387.781-1.804 1.35a3.281 3.281 0 00-.639 1.945c0 .606.137 1.132.412 1.577.284.445.668.824 1.15 1.136a8.112 8.112 0 001.606.767c.587.209 1.179.384 1.775.526l2.728.682c1.098.255 2.154.601 3.167 1.037 1.023.435 1.937.984 2.742 1.647a7.31 7.31 0 011.931 2.4c.474.938.71 2.037.71 3.296 0 1.705-.435 3.206-1.306 4.503-.871 1.288-2.13 2.297-3.779 3.026-1.638.72-3.622 1.08-5.951 1.08-2.263 0-4.228-.351-5.895-1.052-1.657-.7-2.955-1.723-3.892-3.068-.928-1.345-1.43-2.983-1.506-4.915h5.185c.076 1.014.388 1.856.937 2.529.55.672 1.265 1.174 2.145 1.505.89.332 1.885.497 2.983.497 1.146 0 2.15-.17 3.011-.51.872-.351 1.554-.834 2.046-1.45.492-.625.743-1.354.753-2.187-.01-.758-.232-1.383-.668-1.875-.435-.502-1.046-.919-1.832-1.25-.777-.341-1.686-.644-2.727-.91l-3.31-.852c-2.396-.615-4.29-1.548-5.682-2.798-1.382-1.26-2.074-2.93-2.074-5.014 0-1.714.464-3.215 1.392-4.503.938-1.288 2.211-2.287 3.821-2.997C8.408.87 10.231.51 12.267.51c2.064 0 3.873.36 5.426 1.08 1.563.71 2.789 1.7 3.68 2.969.89 1.26 1.349 2.708 1.377 4.346h-5.071zM31.897 30.44c-1.383 0-2.628-.246-3.736-.738-1.098-.502-1.97-1.24-2.613-2.216-.635-.976-.952-2.178-.952-3.608 0-1.231.227-2.25.682-3.054a5.276 5.276 0 011.86-1.932 9.387 9.387 0 012.657-1.094 21.61 21.61 0 013.082-.554c1.279-.132 2.316-.25 3.11-.355.796-.113 1.374-.284 1.734-.511.37-.237.554-.601.554-1.094V15.2c0-1.07-.317-1.899-.952-2.486-.634-.587-1.548-.88-2.741-.88-1.26 0-2.259.274-2.998.823-.729.55-1.221 1.198-1.477 1.946l-4.8-.681c.378-1.326 1.003-2.434 1.874-3.324.871-.9 1.937-1.572 3.196-2.017 1.26-.455 2.652-.682 4.176-.682 1.051 0 2.098.123 3.14.369a8.833 8.833 0 012.855 1.222c.861.558 1.553 1.32 2.073 2.287.53.966.796 2.173.796 3.622V30h-4.943v-2.997h-.17a6.277 6.277 0 01-1.322 1.704c-.559.521-1.264.943-2.116 1.265-.843.312-1.833.468-2.969.468zm1.335-3.778c1.032 0 1.927-.204 2.685-.61.758-.418 1.34-.967 1.747-1.649a4.198 4.198 0 00.625-2.23v-2.57c-.16.132-.436.255-.824.369-.379.113-.805.213-1.278.298-.474.085-.942.16-1.406.227l-1.208.17a8.978 8.978 0 00-2.06.512c-.606.237-1.084.568-1.434.994-.35.417-.526.957-.526 1.62 0 .947.346 1.662 1.037 2.145.692.483 1.572.724 2.642.724zm22.872 3.764c-2.178 0-4.048-.478-5.61-1.434-1.553-.957-2.751-2.278-3.594-3.964-.834-1.695-1.25-3.645-1.25-5.852 0-2.216.426-4.171 1.278-5.866.853-1.705 2.055-3.03 3.608-3.978 1.563-.956 3.41-1.434 5.54-1.434 1.77 0 3.338.326 4.702.98 1.373.644 2.467 1.558 3.28 2.741.815 1.175 1.28 2.548 1.393 4.12h-4.915c-.199-1.052-.672-1.927-1.42-2.628-.739-.71-1.728-1.066-2.969-1.066-1.051 0-1.974.284-2.77.853-.795.558-1.416 1.363-1.86 2.415-.436 1.05-.654 2.31-.654 3.778 0 1.487.218 2.765.653 3.835.436 1.06 1.047 1.88 1.833 2.458.795.568 1.728.852 2.798.852.758 0 1.435-.142 2.031-.426a4.086 4.086 0 001.52-1.264c.407-.55.687-1.217.838-2.003h4.915c-.123 1.543-.578 2.912-1.364 4.105-.786 1.183-1.856 2.111-3.21 2.784-1.354.663-2.945.994-4.773.994zM67.674 30V8.182h4.985v3.636h.227c.398-1.26 1.08-2.23 2.046-2.912.975-.691 2.088-1.037 3.338-1.037.284 0 .601.015.952.043.36.019.658.052.895.1v4.73c-.218-.076-.564-.143-1.038-.2a9.539 9.539 0 00-1.349-.099c-.937 0-1.78.204-2.528.611a4.47 4.47 0 00-1.748 1.662c-.426.71-.639 1.53-.639 2.457V30h-5.142zm27.765-9.176V8.182h5.142V30h-4.986v-3.878h-.227c-.492 1.222-1.302 2.22-2.43 2.997-1.117.777-2.494 1.165-4.133 1.165-1.43 0-2.694-.317-3.792-.952-1.09-.644-1.942-1.576-2.557-2.798-.616-1.231-.923-2.718-.923-4.46V8.182h5.142v13.096c0 1.383.379 2.482 1.136 3.296.758.814 1.752 1.221 2.983 1.221.758 0 1.492-.184 2.202-.554.71-.369 1.292-.918 1.747-1.647.464-.739.696-1.662.696-2.77zm8.43 9.176V8.182h4.914v3.707h.256c.455-1.25 1.207-2.225 2.259-2.926 1.051-.71 2.305-1.065 3.764-1.065 1.477 0 2.722.36 3.736 1.08 1.022.71 1.742 1.68 2.159 2.911h.227c.483-1.212 1.297-2.178 2.443-2.898 1.155-.729 2.524-1.093 4.105-1.093 2.008 0 3.646.634 4.915 1.903 1.269 1.27 1.903 3.12 1.903 5.554V30h-5.156V16.15c0-1.354-.36-2.343-1.079-2.968-.72-.635-1.601-.952-2.642-.952-1.241 0-2.212.388-2.912 1.165-.692.767-1.037 1.766-1.037 2.997V30h-5.043V15.937c0-1.126-.341-2.026-1.023-2.698-.672-.673-1.553-1.009-2.642-1.009a3.73 3.73 0 00-2.017.568c-.606.37-1.089.895-1.449 1.577-.359.672-.539 1.458-.539 2.358V30h-5.142z" fill="#252525"/></svg>