<svg viewBox="0 0 24 24"  xmlns="http://www.w3.org/2000/svg" style="display:none">

	<symbol viewBox="0 0 18 18" id="lang">
		<path fill-rule="evenodd" clip-rule="evenodd" d="M0.447266 9.00015C0.447266 4.52653 4.07364 0.900146 8.54727 0.900146C13.0209 0.900146 16.6473 4.52653 16.6473 9.00015C16.6473 13.4738 13.0209 17.1001 8.54727 17.1001C4.07364 17.1001 0.447266 13.4738 0.447266 9.00015ZM8.54727 2.10015C4.73639 2.10015 1.64727 5.18927 1.64727 9.00015C1.64727 12.811 4.73639 15.9001 8.54727 15.9001C12.3581 15.9001 15.4473 12.811 15.4473 9.00015C15.4473 5.18927 12.3581 2.10015 8.54727 2.10015Z"/>
		<path fill-rule="evenodd" clip-rule="evenodd" d="M10.6084 1.68094C10.9228 1.57601 11.2626 1.74576 11.3675 2.06008C12.8712 6.56457 12.8712 11.4356 11.3675 15.94C11.2626 16.2544 10.9228 16.4241 10.6084 16.3192C10.2941 16.2143 10.1244 15.8744 10.2293 15.5601C11.6506 11.3022 11.6506 6.69791 10.2293 2.44005C10.1244 2.12572 10.2941 1.78586 10.6084 1.68094ZM4.94842 2.25007C4.94842 1.91869 5.21705 1.65007 5.54842 1.65007H6.29842C6.49133 1.65007 6.67248 1.74282 6.78524 1.89934C6.898 2.05587 6.92863 2.25706 6.86755 2.44005C5.44623 6.69791 5.44623 11.3022 6.86755 15.5601C6.92863 15.7431 6.898 15.9443 6.78524 16.1008C6.67248 16.2573 6.49133 16.3501 6.29842 16.3501H5.54842C5.21705 16.3501 4.94842 16.0814 4.94842 15.7501C4.94842 15.4408 5.18245 15.1861 5.48309 15.1536C4.30772 11.1357 4.30772 6.86446 5.48309 2.84655C5.18245 2.81399 4.94842 2.55936 4.94842 2.25007Z"/>
		<path fill-rule="evenodd" clip-rule="evenodd" d="M15.1094 7.31896C10.8515 5.89765 6.24723 5.89765 1.98936 7.31896C1.67504 7.42389 1.33518 7.25414 1.23025 6.93982C1.12533 6.62549 1.29508 6.28563 1.6094 6.18071C6.11389 4.67707 10.9849 4.67707 15.4894 6.18071C15.8037 6.28563 15.9734 6.62549 15.8685 6.93982C15.7636 7.25414 15.4237 7.42389 15.1094 7.31896ZM1.44866 10.763C1.60518 10.6503 1.80638 10.6196 1.98936 10.6807C6.24723 12.102 10.8515 12.102 15.1094 10.6807C15.2924 10.6196 15.4936 10.6503 15.6501 10.763C15.8066 10.8758 15.8994 11.0569 15.8994 11.2498V11.9998C15.8994 12.3312 15.6308 12.5998 15.2994 12.5998C14.9901 12.5998 14.7355 12.3658 14.7029 12.0652C10.685 13.2405 6.41378 13.2405 2.39587 12.0652C2.36331 12.3658 2.10868 12.5998 1.79938 12.5998C1.46801 12.5998 1.19938 12.3312 1.19938 11.9998V11.2498C1.19938 11.0569 1.29214 10.8758 1.44866 10.763Z"/>
	</symbol>

	<symbol viewBox="0 0 17 16" id="instagram">
		<path d="M8.5 1.44578C10.6205 1.44578 10.9096 1.44578 11.7771 1.44578C12.5482 1.44578 12.9337 1.63855 13.2229 1.73494C13.6084 1.92771 13.8976 2.0241 14.1867 2.31325C14.4759 2.60241 14.6687 2.89157 14.7651 3.27711C14.8614 3.56627 14.9578 3.95181 15.0542 4.72289C15.0542 5.59036 15.0542 5.78313 15.0542 8C15.0542 10.2169 15.0542 10.4096 15.0542 11.2771C15.0542 12.0482 14.8614 12.4337 14.7651 12.7229C14.5723 13.1084 14.4759 13.3976 14.1867 13.6867C13.8976 13.9759 13.6084 14.1687 13.2229 14.2651C12.9337 14.3614 12.5482 14.4578 11.7771 14.5542C10.9096 14.5542 10.7169 14.5542 8.5 14.5542C6.28313 14.5542 6.09036 14.5542 5.22289 14.5542C4.45181 14.5542 4.06627 14.3614 3.77711 14.2651C3.39157 14.0723 3.10241 13.9759 2.81325 13.6867C2.5241 13.3976 2.33133 13.1084 2.23494 12.7229C2.13855 12.4337 2.04217 12.0482 1.94578 11.2771C1.94578 10.4096 1.94578 10.2169 1.94578 8C1.94578 5.78313 1.94578 5.59036 1.94578 4.72289C1.94578 3.95181 2.13855 3.56627 2.23494 3.27711C2.42771 2.89157 2.5241 2.60241 2.81325 2.31325C3.10241 2.0241 3.39157 1.83133 3.77711 1.73494C4.06627 1.63855 4.45181 1.54217 5.22289 1.44578C6.09036 1.44578 6.37952 1.44578 8.5 1.44578ZM8.5 0C6.28313 0 6.09036 0 5.22289 0C4.35542 0 3.77711 0.192772 3.29518 0.385543C2.81325 0.578314 2.33133 0.867471 1.8494 1.3494C1.36747 1.83133 1.1747 2.21687 0.885543 2.79518C0.692772 3.27711 0.596386 3.85542 0.5 4.72289C0.5 5.59036 0.5 5.87952 0.5 8C0.5 10.2169 0.5 10.4096 0.5 11.2771C0.5 12.1446 0.692772 12.7229 0.885543 13.2048C1.07831 13.6867 1.36747 14.1687 1.8494 14.6506C2.33133 15.1325 2.71687 15.3253 3.29518 15.6145C3.77711 15.8072 4.35542 15.9036 5.22289 16C6.09036 16 6.37952 16 8.5 16C10.6205 16 10.9096 16 11.7771 16C12.6446 16 13.2229 15.8072 13.7048 15.6145C14.1867 15.4217 14.6687 15.1325 15.1506 14.6506C15.6325 14.1687 15.8253 13.7831 16.1145 13.2048C16.3072 12.7229 16.4036 12.1446 16.5 11.2771C16.5 10.4096 16.5 10.1205 16.5 8C16.5 5.87952 16.5 5.59036 16.5 4.72289C16.5 3.85542 16.3072 3.27711 16.1145 2.79518C15.9217 2.31325 15.6325 1.83133 15.1506 1.3494C14.6687 0.867471 14.2831 0.674699 13.7048 0.385543C13.2229 0.192772 12.6446 0.0963856 11.7771 0C10.9096 0 10.7169 0 8.5 0Z"/>
		<path d="M8.5 3.85542C6.18675 3.85542 4.35542 5.68675 4.35542 8C4.35542 10.3133 6.18675 12.1446 8.5 12.1446C10.8133 12.1446 12.6446 10.3133 12.6446 8C12.6446 5.68675 10.8133 3.85542 8.5 3.85542ZM8.5 10.6988C7.05422 10.6988 5.80121 9.54217 5.80121 8C5.80121 6.55422 6.95783 5.30121 8.5 5.30121C9.94578 5.30121 11.1988 6.45783 11.1988 8C11.1988 9.44578 9.94578 10.6988 8.5 10.6988Z"/>
		<path d="M12.741 4.72289C13.2733 4.72289 13.7048 4.29136 13.7048 3.75904C13.7048 3.22671 13.2733 2.79518 12.741 2.79518C12.2086 2.79518 11.7771 3.22671 11.7771 3.75904C11.7771 4.29136 12.2086 4.72289 12.741 4.72289Z"/>
	</symbol>

	<symbol viewBox="0 0 17 16" id="telegram">
		<path d="M16.5 0.5668L13.9691 15.3339C13.9691 15.3339 13.615 16.3578 12.6422 15.8667L6.8028 10.6848L6.77572 10.6695C7.5645 9.84978 13.681 3.48486 13.9483 3.19635C14.3621 2.74952 14.1052 2.48351 13.6247 2.82104L4.58993 9.46162L1.10433 8.10425C1.10433 8.10425 0.555796 7.87843 0.503026 7.38739C0.449561 6.89556 1.12238 6.62955 1.12238 6.62955L15.3321 0.177833C15.3321 0.177833 16.5 -0.416066 16.5 0.5668V0.5668Z"/>
	</symbol>
		
	<symbol viewBox="0 0 12 12" id="close">
		<path fill-rule="evenodd" clip-rule="evenodd" d="M5.99809 5.29293L10.6445 0.646484L11.3516 1.35359L6.70519 6.00004L11.3516 10.6465L10.6445 11.3536L5.99809 6.70714L1.35164 11.3536L0.644531 10.6465L5.29098 6.00004L0.644532 1.35359L1.35164 0.646484L5.99809 5.29293Z"/>
	</symbol>

	<symbol viewBox="0 0 8 7" id="check">
		<path fill-rule="evenodd" clip-rule="evenodd" d="M7.41575 1.66178L3.06358 6.41625L0.585938 3.70958L1.32356 3.03437L3.06358 4.93523L6.67812 0.986572L7.41575 1.66178Z"/>
	</symbol>

</svg>