<svg width="135" height="31" viewBox="0 0 135 31" fill="none" xmlns="http://www.w3.org/2000/svg">
<path d="M17.679 8.90625C17.5464 7.66572 16.9877 6.69981 16.0028 6.00852C15.0275 5.31723 13.7585 4.97159 12.196 4.97159C11.0975 4.97159 10.1553 5.13731 9.36932 5.46875C8.58333 5.80019 7.98201 6.25 7.56534 6.81818C7.14867 7.38636 6.93561 8.03504 6.92614 8.7642C6.92614 9.37027 7.06345 9.89583 7.33807 10.3409C7.62216 10.786 8.00568 11.1648 8.48864 11.4773C8.97159 11.7803 9.50663 12.036 10.0938 12.2443C10.6809 12.4527 11.2727 12.6278 11.8693 12.7699L14.5966 13.4517C15.6951 13.7074 16.7509 14.053 17.7642 14.4886C18.7869 14.9242 19.7008 15.4735 20.5057 16.1364C21.3201 16.7992 21.964 17.5994 22.4375 18.5369C22.911 19.4744 23.1477 20.5729 23.1477 21.8324C23.1477 23.5369 22.7121 25.0379 21.8409 26.3352C20.9697 27.6231 19.7102 28.6316 18.0625 29.3608C16.4242 30.0805 14.4403 30.4403 12.1108 30.4403C9.84754 30.4403 7.88258 30.09 6.21591 29.3892C4.55871 28.6884 3.26136 27.6657 2.32386 26.321C1.39583 24.9763 0.893939 23.3381 0.818182 21.4062H6.00284C6.0786 22.4195 6.3911 23.2623 6.94034 23.9347C7.48958 24.607 8.20455 25.1089 9.08523 25.4403C9.97538 25.7718 10.9697 25.9375 12.0682 25.9375C13.214 25.9375 14.2178 25.767 15.0795 25.4261C15.9508 25.0758 16.6326 24.5928 17.125 23.9773C17.6174 23.3523 17.8684 22.6231 17.8778 21.7898C17.8684 21.0322 17.6458 20.4072 17.2102 19.9148C16.7746 19.4129 16.1638 18.9962 15.3778 18.6648C14.6013 18.3239 13.6922 18.0208 12.6506 17.7557L9.34091 16.9034C6.94508 16.2879 5.05114 15.3551 3.65909 14.1051C2.27652 12.8456 1.58523 11.1742 1.58523 9.09091C1.58523 7.37689 2.04924 5.87595 2.97727 4.58807C3.91477 3.30019 5.18845 2.30114 6.7983 1.59091C8.40814 0.871211 10.2311 0.511363 12.267 0.511363C14.3314 0.511363 16.1402 0.871211 17.6932 1.59091C19.2557 2.30114 20.482 3.29072 21.3722 4.55966C22.2623 5.81913 22.7216 7.26799 22.75 8.90625H17.679ZM31.897 30.4403C30.5144 30.4403 29.2692 30.1941 28.1612 29.7017C27.0627 29.1998 26.1915 28.4612 25.5476 27.4858C24.9131 26.5104 24.5959 25.3078 24.5959 23.8778C24.5959 22.6468 24.8232 21.6288 25.2777 20.8239C25.7322 20.0189 26.3525 19.375 27.1385 18.892C27.9245 18.4091 28.8099 18.0445 29.7947 17.7983C30.7891 17.5426 31.8165 17.358 32.8771 17.2443C34.1555 17.1117 35.1925 16.9934 35.9879 16.8892C36.7834 16.7756 37.361 16.6051 37.7209 16.3778C38.0902 16.1411 38.2749 15.7765 38.2749 15.2841V15.1989C38.2749 14.1288 37.9576 13.3002 37.3232 12.7131C36.6887 12.1259 35.7749 11.8324 34.5817 11.8324C33.3222 11.8324 32.3232 12.107 31.5845 12.6562C30.8554 13.2055 30.3629 13.8542 30.1072 14.6023L25.3061 13.9205C25.6849 12.5947 26.3099 11.4867 27.1811 10.5966C28.0523 9.69697 29.1177 9.02462 30.3771 8.57955C31.6366 8.125 33.0286 7.89773 34.5533 7.89773C35.6044 7.89773 36.6508 8.02083 37.6925 8.26705C38.7341 8.51326 39.6858 8.92045 40.5476 9.48864C41.4093 10.0473 42.1006 10.8097 42.6214 11.7756C43.1518 12.7415 43.4169 13.9489 43.4169 15.3977V30H38.4737V27.0028H38.3033C37.9908 27.6089 37.5504 28.1771 36.9822 28.7074C36.4235 29.2282 35.718 29.6496 34.8658 29.9716C34.023 30.2841 33.0334 30.4403 31.897 30.4403ZM33.2322 26.6619C34.2644 26.6619 35.1593 26.4583 35.9169 26.0511C36.6745 25.6345 37.2569 25.0852 37.6641 24.4034C38.0807 23.7216 38.2891 22.9782 38.2891 22.1733V19.6023C38.1281 19.7348 37.8535 19.858 37.4652 19.9716C37.0864 20.0852 36.6603 20.1847 36.1868 20.2699C35.7133 20.3551 35.2446 20.4309 34.7805 20.4972C34.3165 20.5634 33.9141 20.6203 33.5732 20.6676C32.8061 20.7718 32.1196 20.9422 31.5135 21.179C30.9074 21.4157 30.4292 21.7472 30.0788 22.1733C29.7285 22.59 29.5533 23.1297 29.5533 23.7926C29.5533 24.7396 29.8989 25.4545 30.5902 25.9375C31.2815 26.4205 32.1622 26.6619 33.2322 26.6619ZM56.1044 30.4261C53.9264 30.4261 52.0561 29.9479 50.4936 28.9915C48.9406 28.035 47.7427 26.714 46.8999 25.0284C46.0665 23.3333 45.6499 21.3826 45.6499 19.1761C45.6499 16.9602 46.076 15.0047 46.9283 13.3097C47.7805 11.6051 48.9832 10.2794 50.5362 9.33239C52.0987 8.37595 53.9453 7.89773 56.076 7.89773C57.8468 7.89773 59.4141 8.22443 60.7777 8.87784C62.1508 9.52178 63.2446 10.4356 64.0589 11.6193C64.8733 12.7936 65.3374 14.1667 65.451 15.7386H60.5362C60.3374 14.6875 59.8639 13.8116 59.1158 13.1108C58.3771 12.4006 57.3875 12.0455 56.147 12.0455C55.0959 12.0455 54.1726 12.3295 53.3771 12.8977C52.5817 13.4564 51.9614 14.2614 51.5163 15.3125C51.0807 16.3636 50.8629 17.6231 50.8629 19.0909C50.8629 20.5777 51.0807 21.8561 51.5163 22.9261C51.9519 23.9867 52.5627 24.8059 53.3487 25.3835C54.1442 25.9517 55.0769 26.2358 56.147 26.2358C56.9046 26.2358 57.5817 26.0937 58.1783 25.8097C58.7843 25.5161 59.291 25.0947 59.6982 24.5455C60.1054 23.9962 60.3847 23.3286 60.5362 22.5426H65.451C65.3279 24.0862 64.8733 25.4545 64.0874 26.6477C63.3014 27.8314 62.2313 28.7595 60.8771 29.4318C59.523 30.0947 57.9321 30.4261 56.1044 30.4261ZM67.6733 30V8.18182H72.6591V11.8182H72.8864C73.2841 10.5587 73.9659 9.58807 74.9318 8.90625C75.9072 8.21496 77.0199 7.86932 78.2699 7.86932C78.554 7.86932 78.8712 7.88352 79.2216 7.91193C79.5814 7.93087 79.8797 7.96401 80.1165 8.01136V12.7415C79.8987 12.6657 79.553 12.5994 79.0795 12.5426C78.6155 12.4763 78.1657 12.4432 77.7301 12.4432C76.7926 12.4432 75.9498 12.6468 75.2017 13.054C74.4631 13.4517 73.8807 14.0057 73.4545 14.7159C73.0284 15.4261 72.8153 16.2453 72.8153 17.1733V30H67.6733ZM95.4389 20.8239V8.18182H100.581V30H95.5952V26.1222H95.3679C94.8755 27.3437 94.0658 28.3428 92.9389 29.1193C91.8215 29.8958 90.4437 30.2841 88.8054 30.2841C87.3755 30.2841 86.1113 29.9669 85.0128 29.3324C83.9238 28.6884 83.0715 27.7557 82.456 26.5341C81.8404 25.303 81.5327 23.8163 81.5327 22.0739V8.18182H86.6747V21.2784C86.6747 22.661 87.0535 23.7595 87.8111 24.5739C88.5687 25.3883 89.563 25.7955 90.794 25.7955C91.5516 25.7955 92.2855 25.6108 92.9957 25.2415C93.706 24.8722 94.2884 24.3229 94.7429 23.5938C95.2069 22.8551 95.4389 21.9318 95.4389 20.8239ZM103.869 30V8.18182H108.783V11.8892H109.039C109.494 10.6392 110.246 9.66383 111.298 8.96307C112.349 8.25284 113.603 7.89773 115.062 7.89773C116.539 7.89773 117.784 8.25758 118.798 8.97727C119.82 9.6875 120.54 10.6581 120.957 11.8892H121.184C121.667 10.6771 122.481 9.71117 123.627 8.99148C124.782 8.26231 126.151 7.89773 127.732 7.89773C129.74 7.89773 131.378 8.5322 132.647 9.80114C133.916 11.0701 134.55 12.9214 134.55 15.3551V30H129.394V16.1506C129.394 14.7964 129.034 13.8068 128.315 13.1818C127.595 12.5473 126.714 12.2301 125.673 12.2301C124.432 12.2301 123.461 12.6184 122.761 13.3949C122.069 14.1619 121.724 15.161 121.724 16.392V30H116.681V15.9375C116.681 14.8106 116.34 13.911 115.658 13.2386C114.986 12.5663 114.105 12.2301 113.016 12.2301C112.278 12.2301 111.605 12.4195 110.999 12.7983C110.393 13.1676 109.91 13.6932 109.55 14.375C109.191 15.0473 109.011 15.8333 109.011 16.733V30H103.869Z" fill="#252525"/>
</svg>
